<svg width="306" height="289" viewBox="0 0 306 289" fill="none" xmlns="http://www.w3.org/2000/svg"><path d="M97.1697 68.2394C101.129 62.5843 108.924 61.21 114.579 65.1697L176.015 108.188C181.67 112.148 183.045 119.942 179.085 125.597V125.597C175.125 131.252 167.331 132.626 161.676 128.667L100.239 85.6485C94.5843 81.6888 93.21 73.8945 97.1697 68.2394V68.2394Z" fill="#25678A"/><g filter="url(#filter0_d_4_19)"><rect x="151.834" y="121.249" width="135" height="25" rx="12.5" transform="rotate(-55 151.834 121.249)" fill="#25678A"/></g><rect x="200.915" y="230.836" width="100" height="25" rx="12.5" transform="rotate(-145 200.915 230.836)" fill="#25678A"/><g filter="url(#filter1_d_4_19)"><rect x="153.745" y="168.003" width="135" height="25" rx="12.5" transform="rotate(125 153.745 168.003)" fill="#25678A"/></g><rect width="100.264" height="25.1345" rx="12.5672" transform="matrix(0.576645 -0.816995 0.821292 0.570508 58.3762 185.915)" fill="#25678A"/><g filter="url(#filter2_d_4_19)"><rect width="135.726" height="25.066" rx="12.533" transform="matrix(-0.821292 -0.570508 0.576645 -0.816995 122.471 138.912)" fill="#25678A"/></g><rect x="249.749" y="101.339" width="100" height="25" rx="12.5" transform="rotate(125 249.749 101.339)" fill="#25678A"/><g filter="url(#filter3_d_4_19)"><rect x="184.913" y="151" width="135" height="26" rx="13" transform="rotate(35 184.913 151)" fill="#25678A"/></g><rect x="144" y="80.7981" width="73" height="25" rx="12.5" transform="rotate(-55 144 80.7981)" fill="#E05757"/><rect x="225.339" y="143" width="73" height="25" rx="12.5" transform="rotate(35 225.339 143)" fill="#E05757"/><rect x="161.35" y="208.339" width="73" height="25" rx="12.5" transform="rotate(125 161.35 208.339)" fill="#E05757"/><rect x="81.1631" y="146.501" width="73" height="25" rx="12.5" transform="rotate(-145 81.1631 146.501)" fill="#E05757"/><defs><filter id="filter0_d_4_19" x="141.742" y="0.571899" width="118.096" height="145.109" filterUnits="userSpaceOnUse" color-interpolation-filters="sRGB"><feFlood flood-opacity="0" result="BackgroundImageFix"/><feColorMatrix in="SourceAlpha" type="matrix" values="0 0 0 0 0 0 0 0 0 0 0 0 0 0 0 0 0 0 127 0" result="hardAlpha"/><feOffset/><feGaussianBlur stdDeviation="7.5"/><feComposite in2="hardAlpha" operator="out"/><feColorMatrix type="matrix" values="0 0 0 0 0 0 0 0 0 0 0 0 0 0 0 0 0 0 0.25 0"/><feBlend mode="normal" in2="BackgroundImageFix" result="effect1_dropShadow_4_19"/><feBlend mode="normal" in="SourceGraphic" in2="effect1_dropShadow_4_19" result="shape"/></filter><filter id="filter1_d_4_19" x="45.7419" y="143.572" width="118.096" height="145.109" filterUnits="userSpaceOnUse" color-interpolation-filters="sRGB"><feFlood flood-opacity="0" result="BackgroundImageFix"/><feColorMatrix in="SourceAlpha" type="matrix" values="0 0 0 0 0 0 0 0 0 0 0 0 0 0 0 0 0 0 127 0" result="hardAlpha"/><feOffset/><feGaussianBlur stdDeviation="7.5"/><feComposite in2="hardAlpha" operator="out"/><feColorMatrix type="matrix" values="0 0 0 0 0 0 0 0 0 0 0 0 0 0 0 0 0 0 0.25 0"/><feBlend mode="normal" in2="BackgroundImageFix" result="effect1_dropShadow_4_19"/><feBlend mode="normal" in="SourceGraphic" in2="effect1_dropShadow_4_19" result="shape"/></filter><filter id="filter2_d_4_19" x="0.942245" y="30.8997" width="146.04" height="118.112" filterUnits="userSpaceOnUse" color-interpolation-filters="sRGB"><feFlood flood-opacity="0" result="BackgroundImageFix"/><feColorMatrix in="SourceAlpha" type="matrix" values="0 0 0 0 0 0 0 0 0 0 0 0 0 0 0 0 0 0 127 0" result="hardAlpha"/><feOffset/><feGaussianBlur stdDeviation="7.5"/><feComposite in2="hardAlpha" operator="out"/><feColorMatrix type="matrix" values="0 0 0 0 0 0 0 0 0 0 0 0 0 0 0 0 0 0 0.25 0"/><feBlend mode="normal" in2="BackgroundImageFix" result="effect1_dropShadow_4_19"/><feBlend mode="normal" in="SourceGraphic" in2="effect1_dropShadow_4_19" result="shape"/></filter><filter id="filter3_d_4_19" x="160.104" y="141.104" width="145.29" height="118.522" filterUnits="userSpaceOnUse" color-interpolation-filters="sRGB"><feFlood flood-opacity="0" result="BackgroundImageFix"/><feColorMatrix in="SourceAlpha" type="matrix" values="0 0 0 0 0 0 0 0 0 0 0 0 0 0 0 0 0 0 127 0" result="hardAlpha"/><feOffset/><feGaussianBlur stdDeviation="7.5"/><feComposite in2="hardAlpha" operator="out"/><feColorMatrix type="matrix" values="0 0 0 0 0 0 0 0 0 0 0 0 0 0 0 0 0 0 0.25 0"/> <feBlend mode="normal" in2="BackgroundImageFix" result="effect1_dropShadow_4_19"/><feBlend mode="normal" in="SourceGraphic" in2="effect1_dropShadow_4_19" result="shape"/></filter></defs></svg>